<?xml version="1.0" standalone="no"?>
<!DOCTYPE svg PUBLIC "-//W3C//DTD SVG 20010904//EN"
 "http://www.w3.org/TR/2001/REC-SVG-20010904/DTD/svg10.dtd">
<svg version="1.0" xmlns="http://www.w3.org/2000/svg"
 width="360.000000pt" height="360.000000pt" viewBox="0 0 360.000000 360.000000"
 preserveAspectRatio="xMidYMid meet">

<g transform="translate(0.000000,360.000000) scale(0.100000,-0.100000)"
fill="#000000" stroke="none">
<path d="M1780 3458 c0 -25 3 -29 10 -18 13 20 13 50 0 50 -5 0 -10 -15 -10
-32z"/>
<path d="M1826 3475 c4 -8 8 -15 10 -15 2 0 4 7 4 15 0 8 -4 15 -10 15 -5 0
-7 -7 -4 -15z"/>
<path d="M2766 3163 c-6 -14 -5 -15 5 -6 7 7 10 15 7 18 -3 3 -9 -2 -12 -12z"/>
<path d="M1100 2686 c0 -87 9 -120 28 -101 17 17 4 186 -15 193 -10 3 -13 -20
-13 -92z"/>
<path d="M1220 2766 c0 -7 6 -18 13 -24 10 -9 11 -29 6 -83 -5 -40 -6 -76 -3
-81 13 -20 21 -2 34 73 11 63 18 83 32 87 23 6 23 19 -1 32 -29 15 -81 13 -81
-4z"/>
<path d="M938 2763 c-36 -6 -44 -31 -13 -43 15 -6 27 -20 30 -37 19 -87 30
-123 36 -123 17 0 17 19 3 90 -15 68 -14 75 1 86 9 7 14 17 10 23 -6 11 -17
12 -67 4z"/>
<path d="M1413 2728 c-14 -23 -45 -113 -50 -145 -5 -29 -2 -34 31 -50 36 -16
37 -16 58 4 18 18 68 140 68 165 0 5 -7 8 -16 6 -10 -2 -24 -25 -36 -58 -10
-30 -21 -63 -24 -72 -4 -10 -15 -18 -25 -18 -14 0 -19 7 -19 30 0 17 5 39 10
50 6 11 15 29 20 40 20 40 5 82 -17 48z"/>
<path d="M760 2697 c-33 -17 -37 -55 -9 -91 18 -23 27 -27 54 -22 23 5 34 2
38 -7 9 -24 -9 -40 -38 -33 -22 6 -26 4 -23 -10 5 -29 32 -39 67 -24 26 11 31
18 31 48 0 44 -30 73 -69 66 -18 -4 -32 0 -40 10 -19 22 -4 38 29 31 36 -8 47
9 18 29 -27 19 -26 19 -58 3z"/>
<path d="M1605 2629 c6 -25 0 -40 -29 -85 -35 -53 -45 -84 -27 -84 10 0 51 53
51 67 1 18 50 63 70 63 33 0 23 25 -19 48 -50 29 -54 28 -46 -9z"/>
<path d="M600 2608 c0 -7 9 -24 20 -38 20 -25 26 -50 13 -50 -5 0 -19 9 -33
20 -26 20 -70 27 -70 11 0 -10 49 -76 91 -125 40 -46 55 -26 18 26 -28 38 -20
44 27 19 82 -44 84 -20 7 78 -55 69 -73 84 -73 59z"/>
<path d="M1703 2477 c-29 -30 -53 -63 -53 -74 0 -27 33 -63 57 -63 20 0 133
109 133 128 0 16 -49 62 -66 62 -9 0 -41 -24 -71 -53z m94 -3 c8 -21 -65 -96
-91 -92 -32 5 -29 23 14 66 42 44 67 52 77 26z"/>
<path d="M1035 2481 c-206 -35 -397 -176 -484 -356 -52 -110 -71 -189 -71
-301 1 -184 67 -343 194 -470 78 -77 172 -135 266 -163 25 -7 58 -17 74 -22
16 -5 75 -9 130 -9 153 0 265 36 401 130 104 71 214 236 246 368 7 28 16 52
19 52 3 0 12 -24 19 -52 7 -29 31 -91 54 -138 32 -66 58 -102 117 -160 103
-103 181 -147 328 -186 59 -16 233 -19 278 -5 16 5 49 15 74 22 25 7 59 20 75
29 17 9 44 20 60 23 17 3 25 4 18 1 -7 -3 -9 -12 -6 -20 9 -23 23 -16 23 13 0
20 18 44 74 97 147 141 216 298 216 489 0 225 -110 430 -295 553 -70 46 -88
55 -175 85 -54 19 -86 23 -195 23 -139 0 -169 -6 -282 -56 -49 -22 -146 -90
-189 -133 -82 -82 -147 -196 -174 -302 -8 -29 -17 -53 -20 -53 -3 0 -12 24
-20 53 -57 225 -245 414 -477 476 -56 15 -216 22 -278 12z m1385 -168 c1 -149
1 -145 19 -137 18 7 26 8 58 6 24 -2 40 -36 25 -55 -19 -24 -19 -76 0 -94 10
-9 18 -22 18 -29 0 -9 10 -11 35 -7 30 5 36 2 44 -18 11 -31 5 -47 -32 -87
-29 -30 -30 -34 -19 -65 18 -50 15 -61 -20 -82 -30 -18 -31 -19 -11 -28 28
-12 43 -48 43 -102 0 -24 5 -47 10 -50 6 -3 10 -17 10 -31 0 -14 7 -27 15 -30
23 -9 19 -44 -5 -44 -21 0 -27 -15 -10 -25 15 -9 13 -178 -3 -198 -11 -15 -27
-17 -122 -15 l-110 3 0 118 c0 87 -3 117 -12 117 -16 0 -17 36 -2 45 6 4 8 14
4 22 -3 9 2 24 11 34 12 14 18 41 19 96 2 43 7 98 13 123 7 31 7 49 0 57 -6 7
-8 20 -4 28 3 9 0 24 -6 35 -9 14 -9 25 0 44 8 18 8 27 1 32 -6 3 -9 18 -6 33
3 15 -1 34 -9 45 -19 27 -18 50 6 71 21 19 29 95 10 95 -5 0 -10 13 -10 29 0
17 -4 33 -10 36 -19 12 -11 82 13 109 12 14 25 26 29 26 4 0 8 -48 8 -107z
m-1260 50 c0 -30 8 -60 20 -81 13 -21 20 -50 20 -84 0 -35 6 -58 18 -71 16
-18 17 -52 17 -420 0 -311 3 -401 13 -404 16 -6 15 -58 -2 -72 -9 -8 -47 -11
-107 -9 l-94 3 -3 33 c-2 18 2 39 8 47 8 10 10 126 8 409 -2 302 0 398 10 408
6 6 12 37 12 67 0 39 5 61 18 75 20 22 42 89 42 125 0 11 5 21 10 21 6 0 10
-21 10 -47z"/>
<path d="M2440 2110 c0 -5 5 -10 10 -10 6 0 10 5 10 10 0 6 -4 10 -10 10 -5 0
-10 -4 -10 -10z"/>
<path d="M2460 1989 c0 -5 5 -7 10 -4 6 3 10 8 10 11 0 2 -4 4 -10 4 -5 0 -10
-5 -10 -11z"/>
<path d="M2506 1970 c-5 -16 -14 -65 -22 -120 -5 -33 -4 -34 10 -16 9 11 16
30 16 42 0 13 5 35 10 49 6 17 7 33 1 43 -8 15 -10 15 -15 2z"/>
<path d="M2480 1400 c0 -11 5 -20 10 -20 6 0 10 9 10 20 0 11 -4 20 -10 20 -5
0 -10 -9 -10 -20z"/>
<path d="M2525 1407 c-4 -10 -5 -21 -1 -24 10 -10 18 4 13 24 -4 17 -4 17 -12
0z"/>
<path d="M1080 2050 c0 -5 5 -10 10 -10 6 0 10 5 10 10 0 6 -4 10 -10 10 -5 0
-10 -4 -10 -10z"/>
<path d="M1112 1968 c-16 -16 -15 -40 1 -62 11 -14 18 -16 32 -9 12 7 14 13 6
17 -14 9 -15 46 -1 46 6 0 10 -6 10 -14 0 -21 21 -31 31 -15 16 27 -56 60 -79
37z"/>
<path d="M1080 1790 c0 -29 4 -40 15 -40 11 0 15 11 15 40 0 29 -4 40 -15 40
-11 0 -15 -11 -15 -40z"/>
<path d="M436 2461 c-5 -7 21 -33 122 -124 16 -15 25 -18 33 -10 8 8 2 19 -21
40 -18 15 -51 45 -74 66 -43 39 -51 43 -60 28z"/>
<path d="M145 2340 c3 -5 8 -10 11 -10 2 0 4 5 4 10 0 6 -5 10 -11 10 -5 0 -7
-4 -4 -10z"/>
<path d="M1893 1263 c-27 -27 -59 -61 -72 -76 l-25 -27 29 -30 c16 -17 37 -30
46 -30 10 0 43 26 74 57 71 73 73 110 8 147 -8 4 -31 -11 -60 -41z m71 -18 c7
-18 -68 -105 -91 -105 -30 0 -24 31 13 74 41 46 68 57 78 31z"/>
<path d="M2982 1291 c-12 -10 -22 -29 -22 -43 0 -48 76 -88 107 -57 15 15 43
4 43 -16 0 -9 -8 -18 -17 -21 -10 -3 -25 -8 -33 -11 -12 -4 -12 -7 4 -19 11
-8 26 -14 33 -14 20 0 53 38 53 60 0 43 -86 92 -105 60 -3 -5 -15 -10 -26 -10
-15 0 -20 6 -17 23 2 15 10 22 25 22 13 0 23 3 24 8 3 31 -41 43 -69 18z"/>
<path d="M2847 1177 l-28 -22 31 -48 c16 -26 30 -51 30 -55 0 -4 11 -20 24
-37 l24 -30 36 19 c45 24 41 42 -7 38 -32 -3 -37 -1 -37 17 0 11 5 23 10 26 6
3 10 13 10 22 0 12 -7 14 -29 10 -38 -8 -50 18 -21 48 11 12 20 24 20 28 0 15
-36 6 -63 -16z"/>
<path d="M2053 1178 c-6 -7 -28 -46 -49 -86 l-39 -73 25 -19 c27 -21 55 -26
65 -10 3 5 -3 15 -15 22 -11 7 -20 23 -20 36 0 21 3 23 29 17 34 -7 47 7 26
28 -8 9 -15 23 -15 33 0 14 7 16 40 10 51 -8 55 15 6 38 -41 19 -41 19 -53 4z"/>
<path d="M2700 1102 c0 -12 12 -59 26 -102 28 -85 37 -92 89 -68 36 16 34 41
-3 33 -35 -7 -44 3 -63 67 -7 26 -21 57 -31 70 l-18 23 0 -23z"/>
<path d="M2253 1083 c-38 -107 -50 -173 -31 -173 8 0 19 20 27 48 7 26 17 57
22 70 11 29 12 82 0 82 -5 0 -13 -12 -18 -27z"/>
<path d="M2352 1078 c-16 -20 -20 -190 -4 -195 8 -3 12 8 12 36 0 22 4 42 9
45 12 8 28 -14 33 -43 3 -25 32 -50 44 -38 12 12 18 197 6 197 -7 0 -14 -12
-18 -27 -11 -53 -15 -63 -25 -63 -5 0 -9 8 -9 18 0 17 -27 82 -35 82 -1 0 -7
-6 -13 -12z"/>
<path d="M2560 1083 c-26 -10 -30 -26 -25 -93 8 -89 20 -110 61 -110 45 0 69
34 56 82 -10 39 -52 55 -52 19 0 -12 5 -21 10 -21 6 0 10 -9 10 -20 0 -13 -7
-20 -20 -20 -32 0 -54 106 -26 129 10 9 16 8 26 -4 18 -21 40 -19 40 5 0 30
-42 47 -80 33z"/>
</g>
</svg>
